<?xml version="1.0" encoding="UTF-8" standalone="no"?>
<svg width="50px" height="48px" viewBox="0 0 50 48" version="1.1" xmlns="http://www.w3.org/2000/svg" xmlns:xlink="http://www.w3.org/1999/xlink" xmlns:sketch="http://www.bohemiancoding.com/sketch/ns">
    <!-- Generator: Sketch 3.0.4 (8053) - http://www.bohemiancoding.com/sketch -->
    <title>fa-linkedin 2</title>
    <desc>Created with Sketch.</desc>
    <defs></defs>
    <g id="Main" stroke="none" stroke-width="1" fill="none" fill-rule="evenodd" sketch:type="MSPage">
        <g id="Desktop" sketch:type="MSArtboardGroup" transform="translate(-557.000000, -613.000000)" fill="#D6D9DC">
            <g id="fa-linkedin-2" sketch:type="MSLayerGroup" transform="translate(558.000000, 613.000000)">
                <path d="M1.25810526,9.57331749 C2.27873684,10.6049236 3.69852632,11.1207267 5.39873684,11.1207267 L5.45684211,11.1207267 C7.27073684,11.1207267 8.688,10.6049236 9.76421053,9.57331749 C10.8429474,8.48298132 11.3532632,7.22156197 11.3532632,5.61797623 C11.3532632,4.07056706 10.7848421,2.75297114 9.76421053,1.72136503 C8.74357895,0.689758913 7.32631579,0.173955857 5.568,0.173955857 C3.80968421,0.173955857 2.39242105,0.689758913 1.31621053,1.72136503 C0.237473684,2.75297114 -0.328421053,4.07056706 -0.328421053,5.61797623 C-0.328421053,7.22156197 0.181894737,8.48298132 1.25810526,9.57331749 L1.25810526,9.57331749 Z M0.295578947,47.1145874 L10.7292632,47.1145874 L10.7292632,15.4769643 L0.295578947,15.4769643 L0.295578947,47.1145874 Z M26.8901053,47.1145874 L26.8901053,29.4598234 C26.8901053,28.3720407 27.0037895,27.5115178 27.2311579,26.8808081 C27.6833684,25.7930255 28.3654737,24.876326 29.2724211,24.1307097 C30.1212632,23.3850934 31.2555789,23.0403735 32.6172632,23.0403735 C34.4311579,23.0403735 35.7347368,23.6710832 36.5861053,24.9325025 C37.4374737,26.1939219 37.8896842,27.9711443 37.8896842,30.2054397 L37.8896842,47.1145874 L48.3233684,47.1145874 L48.3233684,29.0027504 C48.3233684,24.3017929 47.2471579,20.7499015 45.0366316,18.3419694 C42.8235789,15.9340374 39.9309474,14.731348 36.3031579,14.731348 C34.9995789,14.731348 33.7515789,14.9024312 32.6728421,15.2471511 C31.5966316,15.5331409 30.6896842,15.9927674 29.8964211,16.6209236 C29.1587368,17.1954567 28.5903158,17.7674363 28.1381053,18.2857929 C27.6833684,18.7990424 27.2311579,19.3735756 26.832,20.0604618 L26.8901053,20.0604618 L26.8901053,15.4769643 L16.4564211,15.4769643 L16.512,17.0243735 L16.512,26.4799117 C16.512,31.7528489 16.512,38.6319253 16.4564211,47.1145874 L26.8901053,47.1145874 L26.8901053,47.1145874 Z" id="Fill-54" sketch:type="MSShapeGroup"></path>
            </g>
        </g>
    </g>
</svg>