<?xml version="1.0" encoding="UTF-8" standalone="no"?>
<svg width="18px" height="18px" viewBox="0 0 18 18" version="1.1" xmlns="http://www.w3.org/2000/svg" xmlns:xlink="http://www.w3.org/1999/xlink" xmlns:sketch="http://www.bohemiancoding.com/sketch/ns">
    <!-- Generator: Sketch 3.0.4 (8053) - http://www.bohemiancoding.com/sketch -->
    <title>fa-paper-plane 4</title>
    <desc>Created with Sketch.</desc>
    <defs></defs>
    <g id="Main" stroke="none" stroke-width="1" fill="none" fill-rule="evenodd" sketch:type="MSPage">
        <g id="Desktop" sketch:type="MSArtboardGroup" transform="translate(-961.000000, -31.000000)" fill="#FFFFFF">
            <g id="Rectangle-2-+-HIRE-ME-2" sketch:type="MSLayerGroup" transform="translate(877.000000, 23.000000)">
                <g id="fa-paper-plane-4" transform="translate(85.000000, 9.000000)" sketch:type="MSShapeGroup">
                    <path d="M0.201678639,9.7102155 L3.80285822,11.193225 L13.5131947,2.76917958 L5.6597051,12.3989414 L5.6597051,15.5761966 C5.6597051,15.7061323 5.69237051,15.8041285 5.77439698,15.9180945 C5.83900189,16.0160907 5.93699811,16.0814216 6.05096408,16.1300567 C6.09959924,16.1460265 6.16493006,16.1627221 6.24623062,16.1627221 C6.42552741,16.1627221 6.58885444,16.0973913 6.68612476,15.9507599 L8.88632136,13.2627599 L13.0079698,14.9570057 C13.0899962,14.9729754 13.1546011,14.9896711 13.2199319,14.9896711 C13.3338979,14.9896711 13.4318941,14.9729754 13.5131947,14.9243403 C13.6765217,14.826344 13.7737921,14.6964083 13.8064575,14.5171115 L16.12062,0.55373913 C16.1692552,0.309111531 16.0879546,0.113844991 15.8759924,-0.0327863894 C15.7779962,-0.0981172023 15.68,-0.130782609 15.5500643,-0.130782609 C15.4520681,-0.130782609 15.3547977,-0.0981172023 15.2568015,-0.0494820416 L0.136347826,8.68379584 C-0.0748884688,8.79776181 -0.172884688,8.9770586 -0.156914934,9.2216862 C-0.140219282,9.4663138 -0.0102835539,9.62891493 0.201678639,9.7102155" id="Fill-14"></path>
                </g>
            </g>
        </g>
    </g>
</svg>