<?xml version="1.0" encoding="UTF-8" standalone="no"?>
<svg width="70px" height="43px" viewBox="0 0 70 43" version="1.1" xmlns="http://www.w3.org/2000/svg" xmlns:xlink="http://www.w3.org/1999/xlink" xmlns:sketch="http://www.bohemiancoding.com/sketch/ns">
    <!-- Generator: Sketch 3.0.4 (8053) - http://www.bohemiancoding.com/sketch -->
    <title>Shape</title>
    <desc>Created with Sketch.</desc>
    <defs></defs>
    <g id="Main" stroke="none" stroke-width="1" fill="none" fill-rule="evenodd" sketch:type="MSPage">
        <g id="Desktop" sketch:type="MSArtboardGroup" transform="translate(-219.000000, -636.000000)" fill="#9CA1A5" opacity="0.6">
            <path d="M282.103939,642.56985 C282.28,642.40395 282.361667,642.1425 282.312879,641.89785 C282.264091,641.65425 282.103939,641.46315 281.875909,641.42535 C260.675455,637.95405 244.734545,647.05545 235.061818,656.12955 C224.602121,665.94285 219.055152,676.929 219,677.0382 L221.045909,678.2688 C221.1,678.16065 225.514242,666.74085 235.808485,657.0945 C245.09303,648.39525 260.306364,638.90325 280.416515,642.4911 L271.229545,648.59265 C270.996212,648.8121 270.937879,649.188 271.094848,649.4631 C271.251818,649.73925 271.572121,649.82745 271.839394,649.6668 L288.489848,642.33045 C288.699848,642.2055 288.829242,641.9535 288.819697,641.69205 C288.810152,641.42955 288.662727,641.208 288.445303,641.12715 C288.410303,641.11455 283.937727,640.67145 274.628788,636 L272.891515,637.7661 C280.899091,640.97805 284.900758,641.17755 286.77697,641.8989 L276.181515,645.89205 L282.105,642.5688 L282.103939,642.56985 Z" id="Shape" sketch:type="MSShapeGroup"></path>
        </g>
    </g>
</svg>