<?xml version="1.0" encoding="UTF-8" standalone="no"?>
<svg width="50px" height="49px" viewBox="0 0 50 49" version="1.1" xmlns="http://www.w3.org/2000/svg" xmlns:xlink="http://www.w3.org/1999/xlink" xmlns:sketch="http://www.bohemiancoding.com/sketch/ns">
    <!-- Generator: Sketch 3.0.4 (8053) - http://www.bohemiancoding.com/sketch -->
    <title>fa-github 2</title>
    <desc>Created with Sketch.</desc>
    <defs></defs>
    <g id="Main" stroke="none" stroke-width="1" fill="none" fill-rule="evenodd" sketch:type="MSPage">
        <g id="Desktop" sketch:type="MSArtboardGroup" transform="translate(-325.000000, -611.000000)" fill="#D6D9DC">
            <g id="fa-github-2" sketch:type="MSLayerGroup" transform="translate(326.000000, 612.000000)">
                <path d="M4.32,38.8735038 C7.38189474,43.192782 11.4088421,46.1877895 16.2846316,47.8020652 C16.8530526,47.9175539 17.2496842,47.8585263 17.5326316,47.5710877 C17.8155789,47.3401103 17.9292632,46.9962105 17.9292632,46.6497444 L17.9292632,44.9199799 L17.9292632,42.0404612 L17.1915789,42.1559499 C16.7393684,42.2714386 16.1709474,42.2714386 15.4357895,42.2714386 C14.7536842,42.2714386 14.016,42.2149774 13.2227368,42.0404612 C12.4850526,41.9249724 11.7498947,41.5810727 11.1258947,41.0626566 C10.4437895,40.6007018 9.99157895,39.9103358 9.70863158,39.1019148 L9.42315789,38.3550877 C9.19831579,37.8931328 8.85726316,37.3182556 8.40252632,36.740812 C7.95031579,36.1069073 7.49557895,35.7039799 7.04336842,35.5320301 L6.816,35.3600802 C6.64673684,35.2445915 6.53305263,35.1291028 6.41936842,34.9545865 C6.30568421,34.8416642 6.192,34.6671479 6.13389474,34.495198 C6.07831579,34.3797093 6.13389474,34.2642206 6.30568421,34.1487318 C6.41936842,34.0332431 6.75789474,33.976782 7.21263158,33.976782 L7.83663158,34.0922707 C8.23326316,34.2077594 8.79915789,34.4361704 9.36757895,34.8416642 C9.99157895,35.3010526 10.5018947,35.8784962 10.9541053,36.5098346 C11.4088421,37.4337444 11.9747368,38.0650827 12.7124211,38.5270376 C13.3945263,38.9889925 14.0741053,39.2174035 14.7536842,39.2174035 C15.4357895,39.2174035 16.0572632,39.1609424 16.5701053,39.1019148 C17.0778947,38.9889925 17.5326316,38.8144762 17.9873684,38.5834987 C18.1566316,37.1437393 18.6669474,36.0504461 19.5183158,35.3010526 C18.3258947,35.1291028 17.2496842,34.9545865 16.2846316,34.7261754 C15.3221053,34.4361704 14.3570526,34.0332431 13.3364211,33.4583659 C12.3157895,32.8809223 11.4644211,32.1340952 10.7848421,31.3256742 C10.1052632,30.4633584 9.53684211,29.3110376 9.08463158,27.9277393 C8.688,26.5444411 8.46063158,24.9327318 8.46063158,23.0900451 C8.46063158,20.4979649 9.312,18.308812 10.9541053,16.4635589 C10.1608421,14.5053835 10.2745263,12.3162306 11.1814737,9.89866667 C11.8054737,9.72415038 12.7124211,9.89866667 13.9048421,10.3580551 C15.0947368,10.82001 16.0016842,11.2229373 16.5701053,11.5668371 C17.0778947,11.9133033 17.5326316,12.2007419 17.8736842,12.4907469 C19.8568421,11.9133033 21.8981053,11.6258647 23.9974737,11.6258647 C26.0387368,11.6258647 28.08,11.9133033 30.0656842,12.4907469 L31.2555789,11.6823258 C32.0488421,11.1639098 33.0694737,10.7045213 34.1482105,10.301594 C35.2825263,9.8396391 36.1313684,9.72415038 36.6997895,9.89866667 C37.6623158,12.3162306 37.776,14.5053835 36.9827368,16.4635589 C38.6273684,18.308812 39.4787368,20.4979649 39.4787368,23.0900451 C39.4787368,24.9327318 39.2513684,26.5444411 38.8547368,27.9277393 C38.4,29.3674987 37.8341053,30.4633584 37.152,31.3256742 C36.4724211,32.1340952 35.6210526,32.8809223 34.6004211,33.4583659 C33.5797895,34.0332431 32.5591579,34.4361704 31.5966316,34.7261754 C30.6315789,34.9545865 29.5553684,35.1291028 28.3629474,35.3010526 C29.4416842,36.222396 30.0075789,37.7776441 30.0075789,39.8513083 L30.0075789,46.6497444 C30.0075789,46.9962105 30.1212632,47.3401103 30.4042105,47.5710877 C30.6896842,47.8585263 31.0863158,47.9175539 31.6522105,47.8020652 C36.528,46.1877895 40.5549474,43.192782 43.6168421,38.8735038 C46.7368421,34.6106867 48.2677895,29.7704261 48.2677895,24.4143158 C48.2677895,19.9205213 47.1890526,15.773193 45.0341053,11.9723308 C42.8235789,8.22792982 39.8753684,5.23035589 36.1894737,2.98474185 C32.4454737,0.795588972 28.3629474,-0.297704261 23.9974737,-0.297704261 C19.5738947,-0.297704261 15.4913684,0.795588972 11.7498947,2.98474185 C8.064,5.23035589 5.11578947,8.22792982 2.90273684,11.9723308 C0.747789474,15.773193 -0.328421053,19.9205213 -0.328421053,24.4143158 C-0.328421053,29.7704261 1.20252632,34.6106867 4.32,38.8735038" id="Fill-172" sketch:type="MSShapeGroup"></path>
            </g>
        </g>
    </g>
</svg>