<?xml version="1.0" encoding="UTF-8" standalone="no"?>
<svg width="50px" height="29px" viewBox="0 0 50 29" version="1.1" xmlns="http://www.w3.org/2000/svg" xmlns:xlink="http://www.w3.org/1999/xlink" xmlns:sketch="http://www.bohemiancoding.com/sketch/ns">
    <!-- Generator: Sketch 3.0.4 (8053) - http://www.bohemiancoding.com/sketch -->
    <title>Group 4</title>
    <desc>Created with Sketch.</desc>
    <defs></defs>
    <g id="Main" stroke="none" stroke-width="1" fill="none" fill-rule="evenodd" sketch:type="MSPage">
        <g id="Desktop" sketch:type="MSArtboardGroup" transform="translate(-30.000000, -22.000000)" fill="#000000">
            <g id="Group-4" sketch:type="MSLayerGroup" transform="translate(31.000000, 23.000000)">
                <path d="M0.456821889,27.2953984 C4.32609007,27.5621087 8.91808206,26.99458 13.3415463,24.892136 C18.0616849,22.6486847 21.7986474,18.9266569 24.147295,13.4961998 C26.3526391,8.70999021 29.990952,5.55936383 34.6968088,3.7665356 C38.8151089,2.19755359 43.1887723,1.83185616 46.9793827,2.14780548 C47.3921937,2.18221349 47.6773264,2.21579769 47.8164513,2.23645052 L48.1835487,-0.236450519 C47.993013,-0.264735161 47.6549208,-0.304557176 47.1870389,-0.343555375 C43.0558505,-0.687892054 38.329432,-0.292699525 33.8067681,1.43033622 C28.5181584,3.44518053 24.3711431,7.03632182 21.864685,12.4769705 C19.7517786,17.3614856 16.4564801,20.6436145 12.2683635,22.6341992 C8.29287555,24.5237229 4.10692112,25.041069 0.628740004,24.8013165 C0.389715422,24.7848405 0.22937373,24.7690121 0.156171329,24.7597942 L-0.156171329,27.2402058 C-0.0373628237,27.2551666 0.169691412,27.2756063 0.456821889,27.2953984 Z" id="Path-2" sketch:type="MSShapeGroup"></path>
                <path d="M47.25,10 L47.25,8.75245301 L46.0024554,8.75000241 C45.4463182,8.74945466 44.5410479,8.82620985 43.3984127,9.05369241 C41.5125183,9.42914742 39.6263699,10.1062464 37.8580047,11.164742 C32.7868662,14.2001885 29.7465796,19.6752397 29.7500001,28.0005136 L32.2499999,27.9994864 C32.2469374,20.5456294 34.8325759,15.889324 39.1419926,13.3098236 C40.6457034,12.409743 42.2652395,11.8283538 43.8865478,11.5055742 C44.454244,11.3925539 44.9800155,11.3202344 45.448988,11.2804716 C45.7227459,11.2572605 45.9109155,11.2499129 45.9986508,11.2499992 C45.9980689,11.2499985 44.75,10 44.75,10 L44.75,28 L47.25,28 L47.25,10 Z" id="Path-3" sketch:type="MSShapeGroup"></path>
            </g>
        </g>
    </g>
</svg>