<?xml version="1.0" encoding="UTF-8" standalone="no"?>
<svg width="27px" height="48px" viewBox="0 0 27 48" version="1.1" xmlns="http://www.w3.org/2000/svg" xmlns:xlink="http://www.w3.org/1999/xlink" xmlns:sketch="http://www.bohemiancoding.com/sketch/ns">
    <!-- Generator: Sketch 3.0.4 (8053) - http://www.bohemiancoding.com/sketch -->
    <title>fa-facebook 2</title>
    <desc>Created with Sketch.</desc>
    <defs></defs>
    <g id="Main" stroke="none" stroke-width="1" fill="none" fill-rule="evenodd" sketch:type="MSPage">
        <g id="Desktop" sketch:type="MSArtboardGroup" transform="translate(-673.000000, -612.000000)" fill="#D6D9DC">
            <g id="fa-facebook-2" sketch:type="MSLayerGroup" transform="translate(674.000000, 612.000000)">
                <path d="M7.32796143,26.0065714 L7.32796143,47.7094286 L16.3150138,47.7094286 L16.3150138,26.0065714 L23.7800275,26.0065714 L24.9344353,17.5425714 L16.3150138,17.5425714 L16.3150138,12.1025714 C16.3150138,10.77 16.6311295,9.74371429 17.2095041,9.026 C17.7878788,8.35857143 18.8907713,7.99971429 20.5720386,7.99971429 L25.1451791,7.99971429 L25.1451791,0.456857143 C23.5692837,0.200857143 21.361157,0.098 18.4716253,0.098 C15.1067493,0.098 12.3741047,1.07171429 10.3767218,3.02371429 C8.32782369,4.97114286 7.32796143,7.74142857 7.32796143,11.282 L7.32796143,17.5425714 L-0.134710744,17.5425714 L-0.134710744,26.0065714 L7.32796143,26.0065714" id="Fill-22" sketch:type="MSShapeGroup"></path>
            </g>
        </g>
    </g>
</svg>