<?xml version="1.0" encoding="UTF-8" standalone="no"?>
<svg width="50px" height="40px" viewBox="0 0 50 40" version="1.1" xmlns="http://www.w3.org/2000/svg" xmlns:xlink="http://www.w3.org/1999/xlink" xmlns:sketch="http://www.bohemiancoding.com/sketch/ns">
    <!-- Generator: Sketch 3.0.4 (8053) - http://www.bohemiancoding.com/sketch -->
    <title>fa-twitter 2</title>
    <desc>Created with Sketch.</desc>
    <defs></defs>
    <g id="Main" stroke="none" stroke-width="1" fill="none" fill-rule="evenodd" sketch:type="MSPage">
        <g id="Desktop" sketch:type="MSArtboardGroup" transform="translate(-441.000000, -616.000000)" fill="#D6D9DC">
            <g id="fa-twitter-2" sketch:type="MSLayerGroup" transform="translate(442.000000, 616.000000)">
                <path d="M14.9922297,39.65 C18.5125359,39.65 21.8099139,39.1001818 24.9456077,37.9980909 C28.0249569,36.8395455 30.6633493,35.3520909 32.8632344,33.4792727 C35.0067751,31.6064545 36.9322871,29.4587273 38.5270813,27.0336364 C40.0655311,24.5545455 41.2757129,22.019 42.0449378,19.3754545 C42.8166124,16.7319091 43.2012249,14.0859091 43.2012249,11.3859091 L43.2012249,10.1193636 C45.1242871,8.68836364 46.7754258,6.98 48.1497416,4.99672727 C46.2242297,5.76745455 44.3550622,6.31727273 42.4295502,6.48418182 C44.5755407,5.21518182 46.0600957,3.39881818 46.7754258,1.03018182 C44.8499139,2.18627273 42.7602679,3.01345455 40.506488,3.45281818 C38.5270813,1.35909091 36.1067177,0.313454545 33.2478469,0.313454545 C30.55311,0.313454545 28.1890909,1.24863636 26.2635789,3.17790909 C24.3405167,5.16118182 23.3508134,7.47581818 23.3508134,10.2298182 C23.3508134,10.9465455 23.4610526,11.7172727 23.6251866,12.488 C19.556134,12.3235455 15.7614545,11.2754545 12.1872536,9.45909091 C8.66939713,7.58627273 5.64394258,5.16118182 3.16968421,2.13227273 C2.2902201,3.67372727 1.79536842,5.32563636 1.79536842,7.14445455 C1.79536842,8.79636364 2.23632536,10.3942727 3.00555024,11.8817273 C3.83111962,13.3151818 4.8747177,14.4712727 6.24903349,15.4089091 C4.65423923,15.3524545 3.16968421,14.9130909 1.74147368,14.1423636 L1.74147368,14.2528182 C1.74147368,16.6754545 2.51069856,18.7691818 3.99525359,20.588 C5.53370335,22.4068182 7.40287081,23.5064545 9.71299522,24.0022727 C8.8335311,24.2231818 7.95406699,24.3336364 7.07460287,24.3336364 C6.5234067,24.3336364 5.91831579,24.2796364 5.20543541,24.1691818 C5.86442105,26.1524545 7.01825837,27.8043636 8.72329187,29.0733636 C10.4283254,30.3939091 12.3538373,31.0541818 14.497378,31.0541818 C10.8692823,33.9210909 6.80022967,35.2980909 2.17998086,35.2980909 C1.30051675,35.2980909 0.531291866,35.2980909 -0.184038278,35.1876364 C4.37986603,38.1625455 9.49251675,39.65 14.9922297,39.65" id="Fill-178" sketch:type="MSShapeGroup"></path>
            </g>
        </g>
    </g>
</svg>